#!OML:ASF X:\für Bonn\!DataBase\2005_08_12_Daniel\c3d\Daniel.ASF
:FULLY-SPECIFIED
:DEGREES
115
root -4.18478 17.2758 -1.3377 282.556 -88.1881 -295.935
lowerback 19.2717 -6.65538 -5.13393
upperback 7.41691 -10.2598 -2.41952
thorax -2.2184 -5.36981 2.37036
lowerneck 10.4133 5.7851 -2.93828
upperneck 17.7602 6.3365 0.211451
head 3.96082 2.46714 0.544323
rclavicle -1.54058e-014 3.4191e-014
rhumerus -34.8807 13.5207 -82.663
rradius 80.4369
rwrist -0.373461
rhand -31.8751 37.4353
rfingers 7.12502
rthumb -5.12814 7.51737
lclavicle -1.54058e-014 3.4191e-014
lhumerus 4.34849 -5.82471 75.3645
lradius 124.714
lwrist 38.9899
lhand -8.93498 -12.1708
lfingers 7.12502
lthumb 17.009 17.1045
rfemur -10.4818 1.44001 9.63167
rtibia 47.4397
rfoot -7.7659 -11.5762
rtoes -11.5395
lfemur 0.372064 -11.2238 -26.5614
ltibia 32.4617
lfoot -26.1163 10.2296
ltoes 5.93695
116
root -4.20665 17.2695 -1.37961 274.724 -88.0359 -287.867
lowerback 18.8058 -6.37075 -5.12117
upperback 7.27111 -9.84986 -2.48806
thorax -2.17929 -5.15687 2.17054
lowerneck 10.551 5.65451 -2.87835
upperneck 17.7181 6.15988 0.26403
head 3.92346 2.38921 0.547642
rclavicle 2.80286e-014 8.74653e-015
rhumerus -34.5798 13.4178 -83.0121
rradius 79.7129
rwrist -0.467227
rhand -31.5439 37.1312
rfingers 7.12502
rthumb -4.80835 7.20578
lclavicle 2.80286e-014 8.74653e-015
lhumerus 2.46824 -5.82042 75.4043
lradius 124.3
lwrist 38.5766
lhand -8.72416 -11.8869
lfingers 7.12502
lthumb 17.2119 17.3709
rfemur -9.40052 2.11706 9.66681
rtibia 45.7459
rfoot -9.11984 -11.7138
rtoes -11.772
lfemur 0.196662 -11.4643 -26.7186
ltibia 32.5489
lfoot -26.4042 10.585
ltoes 5.91283
117
root -4.22734 17.2586 -1.42319 268.613 -87.8648 -281.544
lowerback 18.3721 -6.11124 -5.12996
upperback 7.14754 -9.4789 -2.54534
thorax -2.12158 -4.96596 2.00567
lowerneck 10.5082 5.54755 -2.86251
upperneck 17.772 6.02012 0.327213
head 3.95077 2.3251 0.568457
rclavicle -2.5842e-014 2.78299e-014
rhumerus -34.1885 13.4092 -83.3719
rradius 78.892
rwrist -0.537071
rhand -31.2463 36.8006
rfingers 7.12502
rthumb -4.52093 6.86887
lclavicle -2.5842e-014 2.78299e-014
lhumerus 0.613409 -5.75858 75.4133
lradius 123.816
lwrist 38.0935
lhand -8.57315 -11.5534
lfingers 7.12502
lthumb 17.3573 17.6916
rfemur -8.29886 2.70849 9.72552
rtibia 44.0923
rfoot -10.6855 -11.6239
rtoes -12.271
lfemur -0.000495536 -11.7235 -26.8584
ltibia 32.7178
lfoot -26.7276 10.9234
ltoes 5.89021
118
root -4.24773 17.2461 -1.46808 263.668 -87.6554 -276.382
lowerback 17.9599 -5.85157 -5.16676
upperback 6.9981 -9.11278 -2.59742
thorax -2.09465 -4.77581 1.86964
lowerneck 10.5033 5.44318 -2.84807
upperneck 17.8235 5.88205 0.371032
head 3.97143 2.26041 0.581947
rclavicle 8.27938e-014 -1.59028e-015
rhumerus -33.8114 13.3493 -83.7141
rradius 77.9929
rwrist -0.551321
rhand -30.9192 36.4915
rfingers 7.12502
rthumb -4.20514 6.55324
lclavicle 8.27938e-014 -1.59028e-015
lhumerus -1.26444 -5.74677 75.4398
lradius 123.176
lwrist 37.5378
lhand -8.4753 -11.105
lfingers 7.12502
lthumb 17.4515 18.1316
rfemur -7.22047 3.26321 9.75688
rtibia 42.4816
rfoot -12.287 -11.3722
rtoes -12.1003
lfemur -0.228557 -12.0238 -27.0172
ltibia 32.9388
lfoot -27.082 11.2657
ltoes 5.93536
119
root -4.26767 17.2314 -1.5147 259.574 -87.4326 -272.075
lowerback 17.5385 -5.60055 -5.21577
upperback 6.87019 -8.75951 -2.65069
thorax -2.03561 -4.59453 1.74077
lowerneck 10.4644 5.34983 -2.85708
upperneck 17.8733 5.75841 0.4285
head 3.99606 2.2024 0.604717
rclavicle 3.48867e-014 2.94201e-014
rhumerus -33.3892 13.2829 -84.0559
rradius 77.0541
rwrist -0.514923
rhand -30.5956 36.2081
rfingers 7.12502
rthumb -3.89266 6.26392
lclavicle 3.48867e-014 2.94201e-014
lhumerus -3.09086 -5.72741 75.4473
lradius 122.45
lwrist 37.0002
lhand -8.42578 -10.6234
lfingers 7.12502
lthumb 17.4991 18.609
rfemur -6.18215 3.78165 9.79066
rtibia 40.9124
rfoot -13.8296 -11.0484
rtoes -11.7407
lfemur -0.4699 -12.3284 -27.1719
ltibia 33.1943
lfoot -27.467 11.6254
ltoes 5.96155
120
root -4.28696 17.2172 -1.56241 256.517 -87.2174 -268.823
lowerback 17.1456 -5.35431 -5.24905
upperback 6.74203 -8.41112 -2.69718
thorax -1.99095 -4.4152 1.61742
lowerneck 10.4503 5.26222 -2.88881
upperneck 17.9008 5.64027 0.484426
head 4.00757 2.14626 0.629733
rclavicle -6.06293e-015 1.19271e-014
rhumerus -32.9734 13.1938 -84.3923
rradius 76.0356
rwrist -0.406504
rhand -30.3225 35.9945
rfingers 7.12502
rthumb -3.62893 6.04563
lclavicle -6.06293e-015 1.19271e-014
lhumerus -4.93753 -5.77639 75.4756
lradius 121.668
lwrist 36.4044
lhand -8.47839 -10.0872
lfingers 7.12502
lthumb 17.4485 19.1497
rfemur -5.20717 4.27152 9.8327
rtibia 39.3973
rfoot -15.3156 -10.7329
rtoes -11.3345
lfemur -0.697821 -12.6709 -27.3153
ltibia 33.459
lfoot -27.8619 11.9766
ltoes 5.94987
121
root -4.30611 17.2036 -1.61088 254.196 -86.9777 -266.305
lowerback 16.7523 -5.1222 -5.31016
upperback 6.61749 -8.08568 -2.75061
thorax -1.93645 -4.24824 1.50773
lowerneck 10.4618 5.19229 -2.95986
upperneck 17.8943 5.53963 0.565636
head 3.9999 2.09802 0.668487
rclavicle 9.01488e-014 -1.35174e-014
rhumerus -32.5447 13.1279 -84.7249
rradius 74.9825
rwrist -0.233057
rhand -30.0356 35.7632
rfingers 7.12502
rthumb -3.35188 5.80985
lclavicle 9.01488e-014 -1.35174e-014
lhumerus -6.87824 -5.78532 75.5163
lradius 120.805
lwrist 35.8254
lhand -8.47521 -9.63709
lfingers 7.12502
lthumb 17.4515 19.5995
rfemur -4.31689 4.66075 9.84073
rtibia 37.9524
rfoot -16.6285 -10.4012
rtoes -11.1746
lfemur -0.924214 -13.0393 -27.4812
ltibia 33.7234
lfoot -28.2486 12.3508
ltoes 5.90456
122
root -4.32499 17.1883 -1.66058 252.22 -86.7335 -264.135
lowerback 16.3794 -4.89466 -5.38546
upperback 6.48222 -7.76852 -2.78923
thorax -1.89819 -4.08489 1.42769
lowerneck 10.4346 5.13901 -3.06967
upperneck 17.9341 5.4585 0.645226
head 4.01508 2.05515 0.714948
rclavicle -9.64106e-015 -1.59028e-014
rhumerus -32.1077 13.0934 -85.028
rradius 73.8018
rwrist 0.003188
rhand -29.8499 35.5541
rfingers 7.12502
rthumb -3.17253 5.59792
lclavicle -9.64106e-015 -1.59028e-014
lhumerus -8.87438 -5.7691 75.6056
lradius 119.891
lwrist 35.2562
lhand -8.47598 -9.16463
lfingers 7.12502
lthumb 17.4508 20.0721
rfemur -3.49827 5.03788 9.85884
rtibia 36.6018
rfoot -17.8594 -10.095
rtoes -10.8822
lfemur -1.14344 -13.3581 -27.6286
ltibia 33.9794
lfoot -28.6228 12.6888
ltoes 5.90074
123
root -4.34288 17.1743 -1.70992 250.916 -86.5086 -262.666
lowerback 16.0278 -4.68319 -5.45045
upperback 6.3843 -7.47253 -2.82718
thorax -1.83078 -3.93469 1.34791
lowerneck 10.3709 5.09063 -3.18828
upperneck 17.9411 5.38706 0.744545
head 4.02363 2.01951 0.769959
rclavicle -4.41302e-014 -2.14687e-014
rhumerus -31.5707 13.0648 -85.3265
rradius 72.5315
rwrist 0.304409
rhand -29.7199 35.2724
rfingers 7.12502
rthumb -3.04697 5.3144
lclavicle -4.41302e-014 -2.14687e-014
lhumerus -10.7998 -5.74854 75.6934
lradius 118.83
lwrist 34.6982
lhand -8.55696 -8.86852
lfingers 7.12502
lthumb 17.3729 20.3751
rfemur -2.73538 5.30103 9.88984
rtibia 35.3648
rfoot -18.926 -9.86178
rtoes -10.9018
lfemur -1.33254 -13.5782 -27.7325
ltibia 34.2053
lfoot -28.9235 12.9454
ltoes 5.8112
124
root -4.36002 17.162 -1.76068 250.074 -86.2812 -261.627
lowerback 15.6782 -4.48724 -5.51567
upperback 6.24786 -7.19644 -2.87701
thorax -1.80492 -3.79128 1.26394
lowerneck 10.3283 5.05177 -3.28834
upperneck 17.9866 5.32644 0.824736
head 4.04394 1.98716 0.815568
rclavicle 1.98785e-016 -3.02153e-014
rhumerus -31.0965 13.0362 -85.6593
rradius 71.2241
rwrist 0.590775
rhand -29.5891 34.9722
rfingers 7.12502
rthumb -2.92063 5.01243
lclavicle 1.98785e-016 -3.02153e-014
lhumerus -12.7125 -5.74086 75.7464
lradius 117.7
lwrist 34.2418
lhand -8.63594 -8.56674
lfingers 7.12502
lthumb 17.2969 20.6835
rfemur -2.10223 5.52103 9.92919
rtibia 34.2603
rfoot -19.9228 -9.754
rtoes -11.2138
lfemur -1.54307 -13.7702 -27.8125
ltibia 34.378
lfoot -29.1414 13.1762
ltoes 5.75828
125
root -4.37706 17.1541 -1.81102 249.307 -86.0579 -260.693
lowerback 15.3644 -4.29007 -5.59679
upperback 6.12839 -6.92302 -2.90844
thorax -1.77475 -3.65071 1.21208
lowerneck 10.3033 5.00572 -3.40869
upperneck 17.9819 5.26051 0.872556
head 4.04333 1.95188 0.852613
rclavicle 4.18442e-014 -2.50469e-014
rhumerus -30.5655 13.0414 -85.9533
rradius 69.8054
rwrist 0.873685
rhand -29.5206 34.5639
rfingers 7.12502
rthumb -2.8545 4.60323
lclavicle 4.18442e-014 -2.50469e-014
lhumerus -14.5213 -5.73307 75.828
lradius 116.428
lwrist 33.8047
lhand -8.67691 -8.29047
lfingers 7.12502
lthumb 17.2574 20.9633
rfemur -1.52331 5.73335 9.98263
rtibia 33.2918
rfoot -20.8267 -9.72548
rtoes -11.4771
lfemur -1.68082 -13.8984 -27.8767
ltibia 34.4701
lfoot -29.3124 13.3672
ltoes 5.66096
126
root -4.394 17.1514 -1.8615 248.876 -85.8621 -260.091
lowerback 15.0575 -4.11056 -5.63672
upperback 6.00435 -6.66728 -2.94878
thorax -1.75766 -3.51775 1.13385
lowerneck 10.2619 4.97996 -3.55915
upperneck 18.0043 5.21156 0.986305
head 4.05267 1.92421 0.917591
rclavicle -6.20705e-014 2.78299e-014
rhumerus -30.0726 13.0149 -86.2669
rradius 68.369
rwrist 1.16408
rhand -29.4748 34.0995
rfingers 7.12502
rthumb -2.81025 4.13825
lclavicle -6.20705e-014 2.78299e-014
lhumerus -16.3497 -5.65334 75.9507
lradius 115.025
lwrist 33.4259
lhand -8.63118 -8.01575
lfingers 7.12502
lthumb 17.3014 21.2341
rfemur -1.0391 5.96893 10.0886
rtibia 32.4651
rfoot -21.6455 -9.87965
rtoes -11.8565
lfemur -1.78255 -14.0227 -27.9064
ltibia 34.4702
lfoot -29.4071 13.582
ltoes 5.46273
127
root -4.41148 17.1529 -1.91224 248.593 -85.6605 -259.638
lowerback 14.743 -3.93744 -5.69395
upperback 5.89703 -6.42166 -2.98969
thorax -1.71562 -3.39161 1.06563
lowerneck 10.1936 4.95567 -3.68867
upperneck 18.01 5.17428 1.06258
head 4.06215 1.90364 0.967054
rclavicle 3.52843e-014 7.95139e-015
rhumerus -29.5521 12.955 -86.5812
rradius 66.8597
rwrist 1.4332
rhand -29.4017 33.6515
rfingers 7.12502
rthumb -2.73963 3.68933
lclavicle 3.52843e-014 7.95139e-015
lhumerus -18.0884 -5.45103 76.1453
lradius 113.421
lwrist 33.0207
lhand -8.46303 -7.78702
lfingers 7.12502
lthumb 17.4633 21.4486
rfemur -0.632128 6.28851 10.2127
rtibia 31.7692
rfoot -22.4108 -10.1443
rtoes -12.1019
lfemur -1.83196 -14.1397 -27.943
ltibia 34.3867
lfoot -29.4746 13.7812
ltoes 5.34556
